<svg xmlns="http://www.w3.org/2000/svg" viewBox="0 0 32 32">
  <defs>
    <clipPath id="scan-lines">
      <path d="M0 6h32v2H0zm0 4h32v2H0zm0 4h32v2H0zm0 4h32v2H0zm0 4h32v2H0z"/>
    </clipPath>
  </defs>
  <rect width="32" height="32" fill="#000"/>
  <g clip-path="url(#scan-lines)">
    <path
      fill="#fff"
      transform="translate(3.83 23.44) scale(.024915 -.024915)"
      d="M408-10Q374 73 340.5 155T273 319Q265 338 252.5 372.5T226.5 452T202 545Q204 489 205 439.5T205 345Q205 323 205 300T204.5 254.5T204 209.5T204 164Q204 137 202.5 112T199 74Q216 76 240.5 76.5T275 77V0H47V66Q70 67 85.5 72T109.5 95T118 153L124 536Q125 563 126 588T128 626Q112 625 88 624.5T53 623V700H274L425 313Q434 290 445 259.5T466 200.5T481 155H482Q495 190 506 223T529 287Q568 391 606.5 494T684 700H915V634Q893 633 876 628T850.5 605.5T843 547L858 164Q860 137 858 112T854 74Q871 76 895.5 76.5T930 77V0H652V66Q675 67 691.5 72T716.5 95T723 153L715 365Q715 377 713 406.5T709.5 471.5T707 538Q704 531 701 524.5T696 511L501-10Z"
    />
  </g>
</svg>
